<svg width="120" height="48" viewBox="0 0 120 48" fill="none" xmlns="http://www.w3.org/2000/svg">
<path d="M0 21.536V0H7.12983C9.60643 0 11.655 0.446972 13.2683 1.33723C14.8816 2.23117 16.0815 3.47975 16.8643 5.09033C17.6472 6.70091 18.0386 8.59224 18.0386 10.768C18.0386 12.9438 17.6472 14.8351 16.8643 16.4457C16.0815 18.0563 14.8889 19.3085 13.2829 20.1988C11.677 21.0927 9.62838 21.536 7.12983 21.536H0ZM4.11182 17.9676H6.914C8.65896 17.9676 10.0381 17.6795 11.0441 17.1069C12.0501 16.5343 12.7671 15.7069 13.1915 14.6319C13.6158 13.557 13.8317 12.2678 13.8317 10.7717C13.8317 9.27563 13.6195 7.95687 13.1915 6.87823C12.7635 5.80327 12.0501 4.97582 11.0441 4.40325C10.0381 3.83068 8.66262 3.54254 6.914 3.54254H4.11182V17.9713V17.9676Z" fill="#096F90"/>
<path d="M19.0115 21.5362V6.03245H22.666L23.0611 8.8953C23.4269 8.2193 23.8879 7.64304 24.4476 7.1739C25.0073 6.70107 25.6475 6.33167 26.3681 6.0657C27.0888 5.79973 27.8863 5.66675 28.7606 5.66675V10.0663H27.3595C26.7486 10.0663 26.1852 10.1365 25.6694 10.2806C25.1499 10.4246 24.7 10.6536 24.3122 10.9713C23.9281 11.289 23.6318 11.7249 23.4306 12.279C23.2257 12.8331 23.127 13.5313 23.127 14.3698V21.5362H19.0151H19.0115Z" fill="#096F90"/>
<path d="M29.6755 21.6874C28.9036 21.6874 28.2854 21.4584 27.8171 20.9966C27.3489 20.5349 27.1147 19.966 27.1147 19.29C27.1147 18.614 27.3489 18.0451 27.8171 17.5834C28.2854 17.1216 28.9036 16.8926 29.6755 16.8926C30.4071 16.8926 31.0071 17.1216 31.4717 17.5834C31.9399 18.0451 32.174 18.614 32.174 19.29C32.174 19.966 31.9399 20.5349 31.4717 20.9966C31.0034 21.4584 30.4035 21.6874 29.6755 21.6874Z" fill="#096F90"/>
<path d="M0 47.6264V26.0903H13.8938V29.4445H4.11548V35.196H11.944V38.4578H4.11548V47.6264H0.00365619H0Z" fill="#096F90"/>
<path d="M18.2797 47.9962C16.9993 47.9962 15.9421 47.7857 15.1117 47.3645C14.2776 46.9434 13.663 46.3819 13.2679 45.6727C12.8728 44.9634 12.6753 44.1803 12.6753 43.3196C12.6753 42.3776 12.9131 41.5465 13.3923 40.8262C13.8679 40.1095 14.5922 39.5443 15.5543 39.1343C16.5201 38.7243 17.7309 38.5174 19.1942 38.5174H23.0024C23.0024 37.7601 22.9 37.1285 22.6988 36.6261C22.4939 36.1237 22.1793 35.7506 21.755 35.5031C21.3269 35.2556 20.7599 35.1337 20.0502 35.1337C19.2783 35.1337 18.6235 35.3036 18.0858 35.6398C17.548 35.9796 17.2188 36.4968 17.0944 37.195H13.1033C13.2057 36.0868 13.5642 35.13 14.1861 34.3173C14.8044 33.5083 15.6275 32.8767 16.6554 32.426C17.6797 31.9753 18.8247 31.75 20.0832 31.75C21.5245 31.75 22.7756 31.9975 23.8292 32.4888C24.8827 32.9801 25.6985 33.6894 26.2655 34.6128C26.8325 35.5364 27.1179 36.6741 27.1179 38.0261V47.6231H23.6462L23.189 45.2553C22.9658 45.6653 22.7024 46.0347 22.3951 46.3635C22.0915 46.6922 21.7367 46.9804 21.3306 47.2242C20.9245 47.4717 20.4673 47.6601 19.9588 47.793C19.4503 47.926 18.8906 47.9925 18.2833 47.9925L18.2797 47.9962ZM19.2527 44.7972C19.7795 44.7972 20.2514 44.7012 20.6685 44.5054C21.0855 44.3096 21.444 44.0436 21.7513 43.7038C22.0586 43.3639 22.2964 42.9761 22.4683 42.5365C22.6402 42.0969 22.7573 41.6204 22.8195 41.1069V41.0773H19.6807C19.0515 41.0773 18.5394 41.1549 18.1406 41.3064C17.7456 41.4615 17.4566 41.6795 17.2737 41.9676C17.0907 42.2557 16.9993 42.5845 16.9993 42.9539C16.9993 43.3639 17.0907 43.7038 17.2737 43.9697C17.4566 44.2357 17.72 44.4426 18.0675 44.5866C18.4114 44.7307 18.8101 44.8009 19.2564 44.8009L19.2527 44.7972Z" fill="#096F90"/>
<path d="M34.793 47.9963C33.3919 47.9963 32.1737 47.7709 31.1384 47.3203C30.1031 46.8696 29.291 46.2453 28.7021 45.4437C28.1131 44.6458 27.7765 43.7408 27.696 42.736H31.7786C31.881 43.1239 32.053 43.4785 32.2981 43.7962C32.5432 44.1139 32.8651 44.3651 33.2711 44.5498C33.6772 44.7345 34.1637 44.8268 34.7344 44.8268C35.3051 44.8268 35.7295 44.7492 36.0733 44.5978C36.4172 44.4426 36.6769 44.2321 36.8489 43.9661C37.0208 43.7002 37.1086 43.4231 37.1086 43.135C37.1086 42.7028 36.9879 42.3703 36.7428 42.1339C36.4977 41.8975 36.1428 41.7091 35.6782 41.565C35.21 41.421 34.643 41.2769 33.9735 41.1328C33.2419 40.9888 32.5249 40.8078 31.8262 40.5935C31.1238 40.3792 30.5019 40.1059 29.9532 39.7771C29.4044 39.4484 28.9691 39.0272 28.6435 38.5138C28.3179 38.0003 28.157 37.3649 28.157 36.6077C28.157 35.6842 28.4021 34.8604 28.8886 34.129C29.3752 33.4013 30.0885 32.8213 31.0213 32.3891C31.9542 31.9569 33.0809 31.7427 34.4015 31.7427C36.2489 31.7427 37.7122 32.1638 38.7877 33.0023C39.8632 33.8446 40.5034 35.0008 40.7083 36.4784H36.8379C36.7172 36.0056 36.4465 35.6325 36.0294 35.3554C35.6124 35.0784 35.06 34.9417 34.3686 34.9417C33.637 34.9417 33.0773 35.0747 32.6931 35.3406C32.309 35.6066 32.1152 35.9575 32.1152 36.386C32.1152 36.6742 32.2432 36.929 32.4956 37.1544C32.748 37.3797 33.1102 37.5681 33.5784 37.7233C34.0467 37.8784 34.6137 38.0262 35.2832 38.1702C36.4611 38.4177 37.4964 38.6985 38.3926 39.0162C39.2852 39.3338 39.9876 39.7845 40.4961 40.3682C41.0046 40.9518 41.257 41.7977 41.257 42.9059C41.257 43.8885 40.9936 44.7677 40.4632 45.5361C39.9327 46.3044 39.1901 46.9065 38.2244 47.335C37.2586 47.7636 36.1172 47.9815 34.7966 47.9815L34.793 47.9963Z" fill="#096F90"/>
<path d="M48.7456 47.6266C47.6701 47.6266 46.73 47.4566 45.9288 47.1168C45.1277 46.7769 44.5021 46.2155 44.0558 45.4249C43.6095 44.6344 43.3864 43.5521 43.3864 42.1779V35.5952H40.7671V32.1192H43.3864L43.8436 27.9043H47.4982V32.1192H51.5515V35.5952H47.4982V42.2407C47.4982 42.9389 47.6518 43.4191 47.9555 43.6851C48.2591 43.951 48.7785 44.084 49.5102 44.084H51.5222V47.6229H48.7493L48.7456 47.6266Z" fill="#096F90"/>
<path d="M59.5003 47.6266C58.4248 47.6266 57.4846 47.4566 56.6835 47.1168C55.8823 46.7769 55.2568 46.2155 54.8105 45.4249C54.3642 44.6344 54.141 43.5521 54.141 42.1779V35.5952H51.5217V32.1192H54.141L54.5983 27.9043H58.2528V32.1192H62.3061V35.5952H58.2528V42.2407C58.2528 42.9389 58.4065 43.4191 58.7101 43.6851C59.0137 43.951 59.5332 44.084 60.2648 44.084H62.2768V47.6229H59.5039L59.5003 47.6266Z" fill="#096F90"/>
<path d="M63.3384 47.6265V32.1228H66.9929L67.388 34.9856C67.7538 34.3096 68.2148 33.7334 68.7745 33.2642C69.3342 32.7914 69.9744 32.422 70.695 32.156C71.4157 31.8901 72.2132 31.7571 73.0875 31.7571V36.1566H71.6864C71.0755 36.1566 70.5121 36.2305 69.9963 36.3709C69.4768 36.515 69.0269 36.744 68.6391 37.0617C68.255 37.3793 67.9587 37.8152 67.7538 38.3693C67.549 38.9234 67.4502 39.6216 67.4502 40.4601V47.6265H63.3384Z" fill="#096F90"/>
<path d="M78.5416 47.9962C77.2613 47.9962 76.2077 47.7857 75.3736 47.3645C74.5395 46.9434 73.925 46.3819 73.5299 45.6727C73.1348 44.9634 72.9373 44.1803 72.9373 43.3196C72.9373 42.3776 73.175 41.5465 73.6543 40.8262C74.1298 40.1095 74.8542 39.5443 75.8163 39.1343C76.782 38.7243 77.9929 38.5174 79.4562 38.5174H83.2644C83.2644 37.7601 83.1619 37.1285 82.9607 36.6261C82.7559 36.1237 82.4413 35.7506 82.0169 35.5031C81.5889 35.2556 81.0219 35.1337 80.3122 35.1337C79.5403 35.1337 78.8855 35.3036 78.3477 35.6398C77.81 35.9796 77.4807 36.4968 77.3564 37.195H73.3653C73.4677 36.0868 73.8262 35.13 74.4481 34.3173C75.0663 33.5083 75.8894 32.8767 76.9174 32.426C77.9417 31.9753 79.0867 31.75 80.3451 31.75C81.7864 31.75 83.0375 31.9975 84.0911 32.4888C85.1447 32.9801 85.9605 33.6894 86.5275 34.6128C87.0945 35.5364 87.3798 36.6741 87.3798 38.0261V47.6231H83.9082L83.4509 45.2553C83.2278 45.6653 82.9644 46.0347 82.6571 46.3635C82.3535 46.6922 81.9986 46.9804 81.5926 47.2242C81.1865 47.4717 80.7292 47.6601 80.2207 47.793C79.7122 47.926 79.1562 47.9925 78.5453 47.9925L78.5416 47.9962ZM79.5184 44.7972C80.0451 44.7972 80.5171 44.7012 80.9341 44.5054C81.3511 44.3096 81.7096 44.0436 82.0169 43.7038C82.3205 43.3639 82.5583 42.9761 82.7339 42.5365C82.9059 42.0969 83.0229 41.6204 83.0851 41.1069V41.0773H79.9464C79.3172 41.0773 78.805 41.1549 78.4063 41.3064C78.0112 41.4615 77.7222 41.6795 77.5393 41.9676C77.3564 42.2557 77.2649 42.5845 77.2649 42.9539C77.2649 43.3639 77.3564 43.7038 77.5393 43.9697C77.7222 44.2357 77.9856 44.4426 78.3331 44.5866C78.677 44.7307 79.0757 44.8009 79.522 44.8009L79.5184 44.7972Z" fill="#096F90"/>
<path d="M96.2105 47.9964C94.6668 47.9964 93.2949 47.6492 92.0987 46.951C90.8988 46.2529 89.966 45.2998 89.2965 44.0882C88.6271 42.8765 88.2905 41.495 88.2905 39.9361C88.2905 38.3773 88.6271 36.9255 89.2965 35.7065C89.966 34.4875 90.9025 33.5233 92.0987 32.8141C93.2949 32.1048 94.6668 31.7539 96.2105 31.7539C98.1786 31.7539 99.8358 32.2785 101.175 33.3239C102.514 34.3693 103.37 35.8062 103.735 37.6311H99.3785C99.1956 36.9144 98.8152 36.3492 98.2372 35.9392C97.6592 35.5292 96.9714 35.3223 96.1813 35.3223C95.4716 35.3223 94.8351 35.5033 94.2754 35.8616C93.7156 36.22 93.2803 36.7445 92.9657 37.4316C92.6511 38.1187 92.4938 38.935 92.4938 39.877C92.4938 40.5936 92.5853 41.2364 92.7682 41.8016C92.9511 42.3668 93.2035 42.847 93.5291 43.2459C93.8547 43.6449 94.2461 43.9478 94.7034 44.1547C95.1606 44.3615 95.6508 44.4613 96.1813 44.4613C96.7117 44.4613 97.1909 44.3689 97.6299 44.1842C98.0652 43.9995 98.4384 43.7372 98.742 43.4011C99.0456 43.0612 99.2615 42.6475 99.3822 42.1562H103.739C103.373 43.9404 102.514 45.3626 101.164 46.4154C99.8139 47.4719 98.164 48.0001 96.2142 48.0001L96.2105 47.9964Z" fill="#096F90"/>
<path d="M104.833 47.627V25.4778H108.945V47.627H104.833ZM114.886 47.627L108.334 39.1345L114.212 32.1196H119.056L111.469 40.8892V37.5978L120 47.627H114.882H114.886Z" fill="#096F90"/>
</svg>
